<svg xmlns="http://www.w3.org/2000/svg" width="800" height="600" viewBox="0 0 800 600">
  <defs>
    <linearGradient id="bg" x1="0" y1="0" x2="1" y2="1">
      <stop offset="0%" stop-color="#0e1525"/>
      <stop offset="100%" stop-color="#17223a"/>
    </linearGradient>
    <linearGradient id="beamO" x1="0" y1="0.5" x2="1" y2="0.5">
      <stop offset="0%" stop-color="#ffae42" stop-opacity="0"/>
      <stop offset="22%" stop-color="#ffae42" stop-opacity="0.45"/>
      <stop offset="100%" stop-color="#ffae42" stop-opacity="0"/>
    </linearGradient>
    <clipPath id="towerClip">
      <path d="M378 420 L422 420 L410 230 L390 230 Z"/>
    </clipPath>
  </defs>
  <rect width="100%" height="100%" fill="url(#bg)"/>

  <!-- Beams -->
  <g opacity="0.95">
    <polygon points="400,200 780,160 780,240" fill="url(#beamO)"/>
    <polygon points="400,200 20,160 20,240" fill="url(#beamO)"/>
  </g>

  <!-- Lighthouse body -->
  <g>
    <!-- Tower -->
    <path d="M378 420 L422 420 L410 230 L390 230 Z" fill="#cbd5e1" stroke="#94a3b8" stroke-width="2"/>
    <!-- Stripes inside tower -->
    <g clip-path="url(#towerClip)">
      <rect x="372" y="386" width="56" height="10" fill="#ef4444"/>
      <rect x="372" y="356" width="56" height="10" fill="#ef4444"/>
    </g>
    <!-- Lantern room/top -->
    <rect x="392" y="200" width="16" height="18" fill="#334155" rx="3"/>
    <circle cx="400" cy="200" r="5" fill="#ffd56b"/>
    <path d="M388 200 L412 200 L407 188 Q400 182 393 188 Z" fill="#334155"/>
  </g>

  <!-- No embedded text; gallery card provides labels -->
</svg>
