<svg xmlns="http://www.w3.org/2000/svg" viewBox="0 0 200 120" width="200" height="120" role="img" aria-label="Memory thumbnail">
  <defs>
    <linearGradient id="g" x1="0" y1="0" x2="1" y2="1">
      <stop offset="0" stop-color="#0ea5e9"/>
      <stop offset="1" stop-color="#6366f1"/>
    </linearGradient>
  </defs>
  <rect x="0" y="0" width="200" height="120" rx="12" fill="url(#g)"/>
  <g transform="translate(24,20)">
    <rect x="0" y="0" width="56" height="80" rx="8" fill="#0b1220" stroke="#ffffff33"/>
    <g transform="translate(4,4)">
      <rect x="0" y="0" width="48" height="72" rx="6" fill="#0b1220" stroke="#22d3ee"/>
      <image href="IconTrimmed.png" x="14" y="22" width="20" height="20" />
    </g>
  </g>
  <g transform="translate(88,20)">
    <rect x="0" y="0" width="56" height="80" rx="8" fill="#0b1220" stroke="#ffffff33"/>
    <g transform="translate(4,4)">
      <rect x="0" y="0" width="48" height="72" rx="6" fill="#0b1220" stroke="#22d3ee"/>
      <image href="IconTrimmed.png" x="14" y="22" width="20" height="20" />
    </g>
  </g>
  <g transform="translate(152,20)">
    <rect x="0" y="0" width="56" height="80" rx="8" fill="#0b1220" stroke="#ffffff33"/>
    <g transform="translate(4,4)">
      <rect x="0" y="0" width="48" height="72" rx="6" fill="#0b1220" stroke="#22d3ee"/>
      <image href="IconTrimmed.png" x="14" y="22" width="20" height="20" />
    </g>
  </g>
</svg>
